HIERARCHY
ROOT butt
{
	OFFSET 0.000000 0.000000 0.000000
	CHANNELS 6 Xposition Yposition Zposition Xrotation Yrotation Zrotation
	JOINT lhip
	{
		OFFSET 0.583813 0.718669 -0.323938
		CHANNELS 6 Xposition Yposition Zposition Xrotation Yrotation Zrotation
		JOINT lknee
		{
			OFFSET 0.553245 0.216339 -1.020714
			CHANNELS 6 Xposition Yposition Zposition Xrotation Yrotation Zrotation
			JOINT lankle
			{
				OFFSET -0.339279 0.080945 -1.465530
				CHANNELS 6 Xposition Yposition Zposition Xrotation Yrotation Zrotation
				End Site
				{
					OFFSET 0.537810 -0.043777 -0.195635
				}
			}
		}
	}
	JOINT rhip
	{
		OFFSET 0.339136 -0.940503 -0.149914
		CHANNELS 6 Xposition Yposition Zposition Xrotation Yrotation Zrotation
		JOINT rknee
		{
			OFFSET 0.601234 -0.223249 -1.073499
			CHANNELS 6 Xposition Yposition Zposition Xrotation Yrotation Zrotation
			JOINT rankle
			{
				OFFSET -0.245263 -0.041399 -1.532960
				CHANNELS 6 Xposition Yposition Zposition Xrotation Yrotation Zrotation
				End Site
				{
					OFFSET 0.653910 0.024899 -0.232875
				}
			}
		}
	}
	JOINT abdomen
	{
		OFFSET 0.907647 0.026340 0.317664
		CHANNELS 6 Xposition Yposition Zposition Xrotation Yrotation Zrotation
		JOINT neck
		{
			OFFSET 1.496963 0.039292 -0.038456
			CHANNELS 6 Xposition Yposition Zposition Xrotation Yrotation Zrotation
			End Site
			{
				OFFSET 2.739308 -0.092250 1.009232
			}
		}
		JOINT lshldr
		{
			OFFSET 1.132326 0.559775 -0.444207
			CHANNELS 6 Xposition Yposition Zposition Xrotation Yrotation Zrotation
			JOINT lelbow
			{
				OFFSET -0.149559 0.286290 -0.912030
				CHANNELS 6 Xposition Yposition Zposition Xrotation Yrotation Zrotation
				JOINT lwrist
				{
					OFFSET 0.485181 -0.390159 0.265472
					CHANNELS 6 Xposition Yposition Zposition Xrotation Yrotation Zrotation
					End Site
					{
						OFFSET 0.527290 -0.521758 -0.124363
					}
				}
			}
		}
		JOINT rshldr
		{
			OFFSET 1.100885 -0.503887 -0.296241
			CHANNELS 6 Xposition Yposition Zposition Xrotation Yrotation Zrotation
			JOINT relbow
			{
				OFFSET -0.198937 -0.642069 -0.689888
				CHANNELS 6 Xposition Yposition Zposition Xrotation Yrotation Zrotation
				JOINT rwrist
				{
					OFFSET 0.636091 0.394674 0.001069
					CHANNELS 6 Xposition Yposition Zposition Xrotation Yrotation Zrotation
					End Site
					{
						OFFSET 0.557086 0.133476 -0.377524
					}
				}
			}
		}
	}
}
MOTION
Frames: 6
Frame Time: 0.033333
1.908803 0.006832 0.193710 -9.995171 -1.827598 31.441335 0.583813 0.718669 -0.323938 8.711239 -33.383297 -66.583341 0.553245 0.216339 -1.020714 -57.132309 14.598285 77.522763 -0.339280 0.080945 -1.465530 -9.008792 -16.282708 0.322522 0.339136 -0.940503 -0.149914 -16.547590 -22.165364 -79.782060 0.601234 -0.223249 -1.073499 -47.511547 34.349906 90.157561 -0.245263 -0.041399 -1.532960 16.448760 -1.378913 -2.725823 0.907647 0.026340 0.317664 4.218022 5.683434 -21.736947 1.496964 0.039292 -0.038456 17.527017 5.449141 -2.795461 1.132326 0.559775 -0.444207 24.558384 1.214037 -90.303932 -0.149559 0.286290 -0.912030 151.731683 26.942945 -53.642574 0.485181 -0.390159 0.265472 1.221068 0.982869 13.065851 1.100885 -0.503887 -0.296241 12.513598 -49.289124 -29.426203 -0.198936 -0.642069 -0.689888 -32.366334 116.027374 1.443189 0.636091 0.394674 0.001069 5.912517 -7.213184 14.812677 
2.056931 0.012820 0.144070 -9.615206 -1.694841 31.285545 0.583813 0.718669 -0.323938 9.172762 -32.796345 -67.752055 0.553245 0.216339 -1.020714 -57.089590 14.717261 79.614338 -0.339279 0.080945 -1.465530 -8.673249 -20.421200 -0.302908 0.339136 -0.940503 -0.149914 -21.681606 -21.733809 -77.700369 0.601234 -0.223249 -1.073498 -42.911186 32.519545 83.583436 -0.245263 -0.041399 -1.532960 15.697122 -2.407137 -2.283736 0.907647 0.026340 0.317664 4.747778 5.181180 -20.921549 1.496963 0.039292 -0.038456 15.391630 5.173326 -1.439395 1.132326 0.559775 -0.444207 24.262299 1.348012 -89.903410 -0.149559 0.286290 -0.912030 151.656906 26.822791 -53.355344 0.485181 -0.390159 0.265472 1.355199 0.967076 12.998810 1.100885 -0.503887 -0.296241 11.244740 -49.947934 -30.645522 -0.198936 -0.642069 -0.689888 -32.057394 115.373411 0.967963 0.636091 0.394674 0.001069 6.463855 -6.943652 15.199819 
2.217700 0.018326 0.092960 -8.990762 -1.272713 30.557006 0.583813 0.718669 -0.323938 10.210208 -32.397291 -69.333298 0.553245 0.216339 -1.020714 -57.334930 14.837638 81.553353 -0.339279 0.080945 -1.465531 -10.063670 -23.094017 -0.890419 0.339136 -0.940503 -0.149914 -26.066240 -20.853951 -74.648995 0.601234 -0.223249 -1.073499 -36.463002 29.781817 76.139329 -0.245264 -0.041399 -1.532960 16.542151 -1.263137 -2.782262 0.907647 0.026340 0.317664 4.661135 4.859033 -20.411710 1.496963 0.039292 -0.038456 13.251685 4.770312 -0.098727 1.132326 0.559775 -0.444207 23.847059 1.383806 -88.575375 -0.149559 0.286290 -0.912030 151.451194 26.550667 -52.713228 0.485182 -0.390159 0.265473 1.438117 0.922065 12.532087 1.100885 -0.503887 -0.296241 9.324531 -50.640272 -32.190542 -0.198937 -0.642069 -0.689887 -32.587860 114.640217 1.403377 0.636091 0.394674 0.001069 6.911603 -6.714870 15.514848 
2.388202 0.020819 0.044100 -8.344396 -0.744870 29.660196 0.583813 0.718669 -0.323938 11.567939 -32.357082 -71.340889 0.553245 0.216339 -1.020714 -57.869208 14.992718 83.608052 -0.339279 0.080945 -1.465530 -12.457928 -24.192750 -1.429763 0.339136 -0.940503 -0.149914 -28.867108 -20.370636 -70.903934 0.601234 -0.223249 -1.073498 -31.558875 27.400825 70.630392 -0.245263 -0.041399 -1.532960 18.671912 -0.195004 -3.563608 0.907647 0.026340 0.317664 4.305104 4.743718 -20.029549 1.496964 0.039292 -0.038456 11.246505 4.149190 1.206236 1.132326 0.559775 -0.444207 23.155540 1.446180 -86.639809 -0.149559 0.286290 -0.912030 150.450926 26.087245 -51.827322 0.485181 -0.390159 0.265472 2.087978 0.844652 12.182969 1.100885 -0.503887 -0.296241 7.270186 -51.294038 -33.415884 -0.198937 -0.642069 -0.689888 -34.201028 113.798075 2.984287 0.636091 0.394674 0.001069 7.193005 -6.571179 15.709170 
2.559793 0.019113 0.000960 -7.951917 -0.225673 28.825256 0.583814 0.718669 -0.323938 12.980148 -32.372781 -73.837466 0.553245 0.216339 -1.020714 -58.246911 15.164241 86.301660 -0.339280 0.080945 -1.465530 -14.745748 -23.959948 -1.691139 0.339136 -0.940503 -0.149914 -29.773037 -21.012100 -67.694620 0.601234 -0.223249 -1.073499 -30.135146 26.544069 68.164045 -0.245263 -0.041399 -1.532960 20.397221 -1.627033 -3.392159 0.907647 0.026340 0.317664 4.156869 4.692203 -19.421563 1.496963 0.039292 -0.038456 9.460285 3.268012 2.478282 1.132326 0.559775 -0.444207 22.065264 1.673969 -84.570262 -0.149559 0.286290 -0.912030 148.979895 25.551497 -50.970621 0.485181 -0.390159 0.265472 3.092569 0.774267 12.066504 1.100885 -0.503887 -0.296241 5.652076 -51.924724 -33.756301 -0.198937 -0.642069 -0.689888 -36.687477 112.929193 5.477324 0.636091 0.394674 0.001069 7.291787 -6.524895 15.779573 
2.722606 0.014324 -0.031990 -7.941169 0.348731 26.651984 0.583813 0.718669 -0.323938 14.167918 -32.080504 -76.564037 0.553245 0.216339 -1.020714 -58.041978 15.325268 89.360847 -0.339279 0.080945 -1.465531 -16.052099 -22.678053 -1.480357 0.339136 -0.940503 -0.149914 -29.314871 -22.609045 -66.406678 0.601234 -0.223249 -1.073499 -31.688857 27.187841 68.665531 -0.245263 -0.041399 -1.532960 20.700659 -5.216756 -2.024564 0.907647 0.026340 0.317664 4.383742 4.784653 -18.760977 1.496963 0.039292 -0.038456 8.255977 2.035032 3.786692 1.132326 0.559776 -0.444207 20.652455 2.201278 -82.739184 -0.149559 0.286290 -0.912030 147.634676 25.018496 -50.177770 0.485181 -0.390159 0.265472 3.943948 0.705796 11.938734 1.100885 -0.503887 -0.296241 5.180386 -52.743810 -32.787302 -0.198936 -0.642069 -0.689888 -39.351783 112.313527 8.175286 0.636091 0.394674 0.001069 7.205406 -6.565907 15.721661 
